HIERARCHY
ROOT joint_Root
{
	OFFSET 0.0 0.0 0.0
	CHANNELS 6 Xposition Yposition Zposition Zrotation Xrotation Yrotation 
	JOINT Hips
	{
		OFFSET 4.5925 91.4895 -427.239
		CHANNELS 6 Xposition Yposition Zposition Zrotation Xrotation Yrotation 
		JOINT Spine
		{
			OFFSET 15.7357 0.0 0.0
			CHANNELS 6 Xposition Yposition Zposition Zrotation Xrotation Yrotation 
			JOINT Chest
			{
				OFFSET 8.98455 -0.406207 0.0
				CHANNELS 6 Xposition Yposition Zposition Zrotation Xrotation Yrotation 
				JOINT Neck
				{
					OFFSET 16.3773 0.0 0.0
					CHANNELS 6 Xposition Yposition Zposition Zrotation Xrotation Yrotation 
					JOINT Head
					{
						OFFSET 6.45672 0.0 0.0
						CHANNELS 6 Xposition Yposition Zposition Zrotation Xrotation Yrotation 
						End Site
						{
							OFFSET 0.0 0.0 0.0
						}
					}
				}
				JOINT Shoulder_L
				{
					OFFSET 12.9942 -0.242716 4.98039
					CHANNELS 6 Xposition Yposition Zposition Zrotation Xrotation Yrotation 
					JOINT UpperArm_L
					{
						OFFSET 5.34809 0.0 0.0
						CHANNELS 6 Xposition Yposition Zposition Zrotation Xrotation Yrotation 
						JOINT LowerArm_L
						{
							OFFSET 24.3286 1.87007e-05 0.0
							CHANNELS 6 Xposition Yposition Zposition Zrotation Xrotation Yrotation 
							JOINT Hand_L
							{
								OFFSET 22.2916 0.0 0.0
								CHANNELS 6 Xposition Yposition Zposition Zrotation Xrotation Yrotation 
								End Site
								{
									OFFSET 0.0 0.0 0.0
								}
							}
						}
					}
				}
				JOINT Shoulder_R
				{
					OFFSET 12.9945 -0.242716 -4.98039
					CHANNELS 6 Xposition Yposition Zposition Zrotation Xrotation Yrotation 
					JOINT UpperArm_R
					{
						OFFSET -5.34813 0.0 0.0
						CHANNELS 6 Xposition Yposition Zposition Zrotation Xrotation Yrotation 
						JOINT LowerArm_R
						{
							OFFSET -24.3289 0.000322201 0.0
							CHANNELS 6 Xposition Yposition Zposition Zrotation Xrotation Yrotation 
							JOINT Hand_R
							{
								OFFSET -22.2915 -0.000108084 0.0
								CHANNELS 6 Xposition Yposition Zposition Zrotation Xrotation Yrotation 
								End Site
								{
									OFFSET 0.0 0.0 0.0
								}
							}
						}
					}
				}
			}
		}
		JOINT UpperLeg_L
		{
			OFFSET -2.19248 -6.46944 0.0
			CHANNELS 6 Xposition Yposition Zposition Zrotation Xrotation Yrotation 
			JOINT LowerLeg_L
			{
				OFFSET 39.0811 0.0 -1.23785e-05
				CHANNELS 6 Xposition Yposition Zposition Zrotation Xrotation Yrotation 
				JOINT Foot_L
				{
					OFFSET 40.9854 0.0 -1.26872e-05
					CHANNELS 6 Xposition Yposition Zposition Zrotation Xrotation Yrotation 
					JOINT Toes_L
					{
						OFFSET 11.7543 0.0 0.0
						CHANNELS 6 Xposition Yposition Zposition Zrotation Xrotation Yrotation 
						End Site
						{
							OFFSET 0.0 0.0 0.0
						}
					}
				}
			}
		}
		JOINT UpperLeg_R
		{
			OFFSET -2.19251 6.46944 0.0
			CHANNELS 6 Xposition Yposition Zposition Zrotation Xrotation Yrotation 
			JOINT LowerLeg_R
			{
				OFFSET -39.0811 -0.00228153 -0.0401928
				CHANNELS 6 Xposition Yposition Zposition Zrotation Xrotation Yrotation 
				JOINT Foot_R
				{
					OFFSET -40.9854 0.0 0.0
					CHANNELS 6 Xposition Yposition Zposition Zrotation Xrotation Yrotation 
					JOINT Toes_R
					{
						OFFSET -11.7543 0.0 0.0
						CHANNELS 6 Xposition Yposition Zposition Zrotation Xrotation Yrotation 
						End Site
						{
							OFFSET 0.0 0.0 0.0
						}
					}
				}
			}
		}
	}
}
MOTION
Frames:	4
Frame Time:	0.0333333
0.000000 0.000000 0.000000 0.000000 0.000000 -0.000000 -1.284240 80.094400 -0.110680 87.908300 -1.182540 10.704400 15.735700 0.000005 -0.000001 88.786800 79.837100 -89.131600 8.984550 -0.406207 -0.000000 12.554200 -0.440641 -0.640922 16.377300 -0.000001 -0.000001 -4.709670 -3.138560 0.840165 6.456720 -0.000001 -0.000000 -8.346210 -3.898790 4.620600 12.994200 -0.242716 4.980390 -91.123600 3.257670 -70.959100 5.348090 -0.000007 -0.000001 -66.117500 3.106740 -16.795200 24.328600 0.000019 0.000005 3.654710 12.580000 -16.344800 22.291600 -0.000001 0.000005 9.561650 5.250620 1.416990 12.994500 -0.242716 -4.980390 88.223600 8.523770 -78.181800 -5.348130 -0.000001 -0.000004 -66.261200 2.957600 -16.877400 -24.328900 0.000322 -0.000009 -1.402120 -11.193700 -7.179200 -22.291500 -0.000108 -0.000004 6.777590 5.284830 0.498249 -2.192480 -6.469440 -0.000000 -173.059000 -9.374900 -18.605900 39.081100 -0.000007 -0.000012 -0.576657 0.230606 68.204600 40.985400 -0.000006 -0.000013 0.536536 3.427840 -88.737100 11.754300 -0.000000 0.000003 -0.000672 -0.005090 -16.761300 -2.192510 6.469440 -0.000001 179.238000 12.597500 161.842000 -39.081100 -0.002282 -0.040193 0.107389 -0.042492 67.824700 -40.985400 0.000008 0.000006 7.677100 1.467330 -88.295400 -11.754300 -0.000006 -0.000006 -0.827738 -1.018830 -17.130500
0.000000 0.000000 0.000000 0.000000 0.000000 -0.000000 -1.364830 82.314600 1.935120 88.209700 -1.134980 11.277500 15.735700 0.000005 -0.000001 87.168600 81.676800 -87.651100 8.984550 -0.406207 -0.000000 8.857340 -0.822675 -0.900325 16.377300 -0.000001 -0.000001 -2.549230 -2.661770 0.849002 6.456720 -0.000001 -0.000000 -6.126670 -2.803600 3.989500 12.994200 -0.242716 4.980390 -90.721100 1.950690 -69.707500 5.348090 -0.000007 -0.000001 -61.212400 -15.238000 -15.962200 24.328600 0.000019 0.000005 3.687160 14.331200 -14.592300 22.291600 -0.000001 0.000005 12.111200 5.185760 3.069100 12.994500 -0.242716 -4.980390 88.213300 7.380840 -76.351300 -5.348130 -0.000001 -0.000004 -60.988200 -11.663500 -18.762500 -24.328900 0.000322 -0.000009 -0.466603 -8.900960 -3.006290 -22.291500 -0.000108 -0.000004 7.272590 5.185320 3.082080 -2.192480 -6.469440 -0.000000 -173.002000 -9.334460 -13.087800 39.081100 -0.000007 -0.000012 -0.553116 0.298842 61.619400 40.985400 -0.000006 -0.000013 0.284014 3.684700 -87.057100 11.754300 -0.000000 0.000003 -0.000621 -0.004766 -16.750200 -2.192510 6.469440 -0.000001 178.562000 12.187500 167.141000 -39.081100 -0.002282 -0.040193 0.089936 -0.046935 61.583600 -40.985400 0.000008 0.000006 7.070010 1.732500 -86.298400 -11.754300 -0.000006 -0.000006 -1.004380 -1.233920 -17.419600
0.000000 0.000000 0.000000 0.000000 0.000000 -0.000000 -1.303330 85.240700 4.081620 88.807400 -0.858342 11.420500 15.735700 0.000005 -0.000001 83.194900 83.944900 -83.911400 8.984550 -0.406207 -0.000000 4.251540 -1.410730 -1.379140 16.377300 -0.000001 -0.000001 0.832244 -2.313600 0.899497 6.456720 -0.000001 -0.000000 -3.705260 -1.930060 3.475680 12.994200 -0.242716 4.980390 -89.822900 -0.460931 -68.984700 5.348090 -0.000007 -0.000001 -55.223500 -35.046700 -18.205800 24.328600 0.000019 0.000005 2.594470 10.822400 -13.567400 22.291600 -0.000001 0.000005 14.860400 5.111510 4.848570 12.994500 -0.242716 -4.980390 88.367400 5.832230 -74.331100 -5.348130 -0.000001 -0.000004 -54.955500 -25.445800 -24.904100 -24.328900 0.000322 -0.000009 -0.292598 -10.710100 -1.568560 -22.291500 -0.000108 -0.000004 11.250500 5.147510 4.003020 -2.192480 -6.469440 -0.000000 -173.384000 -9.572090 -6.470590 39.081100 -0.000007 -0.000012 -0.448080 0.352351 51.821000 40.985400 -0.000006 -0.000013 0.191467 4.260920 -83.718200 11.754300 -0.000000 0.000003 -0.000478 -0.003833 -16.717900 -2.192510 6.469440 -0.000001 177.449000 12.193600 173.306000 -39.081100 -0.002282 -0.040193 0.068882 -0.050211 52.588100 -40.985400 0.000008 0.000006 6.601850 2.445280 -82.595400 -11.754300 -0.000006 -0.000006 -1.075630 -1.306240 -18.089700
0.000000 0.000000 0.000000 0.000000 0.000000 -0.000000 -1.168220 87.878000 5.822350 89.436300 -0.538384 9.664310 15.735700 0.000005 -0.000001 72.776700 86.550000 -73.624200 8.984550 -0.406207 -0.000000 -1.189470 -1.976450 -1.714930 16.377300 -0.000001 -0.000001 3.764930 -2.161330 0.789085 6.456720 -0.000001 -0.000000 -1.347450 -1.745720 3.038920 12.994200 -0.242716 4.980390 -88.828500 -2.906390 -68.035500 5.348090 -0.000007 -0.000001 -50.070600 -49.399200 -26.365700 24.328600 0.000019 0.000005 1.861650 7.289370 -14.368800 22.291600 -0.000001 0.000005 15.210700 5.150000 3.941600 12.994500 -0.242716 -4.980390 88.931500 3.584160 -73.387800 -5.348130 -0.000001 -0.000004 -51.695100 -37.650000 -36.463100 -24.328900 0.000322 -0.000009 -0.853642 -17.285400 -2.866030 -22.291500 -0.000108 -0.000004 10.641400 5.186330 3.057620 -2.192480 -6.469440 -0.000000 -174.498000 -10.174800 -2.005220 39.081100 -0.000007 -0.000012 -0.084207 0.094904 41.582700 40.985400 -0.000006 -0.000013 2.105540 4.143710 -79.939300 11.754300 -0.000000 0.000003 -1.186950 -1.571650 -15.643700 -2.192510 6.469440 -0.000001 176.505000 13.017900 177.105000 -39.081100 -0.002282 -0.040193 0.044702 -0.043589 43.548100 -40.985400 0.000008 0.000006 6.192700 3.910430 -77.862400 -11.754300 -0.000006 -0.000006 -1.409650 -1.677070 -19.152100
